HIERARCHY
ROOT Hips
{
    OFFSET 0.000000 0.000000 0.000000
    CHANNELS 6 Xposition Yposition Zposition Zrotation Xrotation Yrotation
    JOINT Spine
    {
        OFFSET -0.000000 7.246840 0.000000
        CHANNELS 3 Zrotation Xrotation Yrotation
        JOINT Spine1
        {
            OFFSET -0.000000 20.289354 0.000000
            CHANNELS 3 Zrotation Xrotation Yrotation
            JOINT Neck
            {
                OFFSET -0.000000 20.206032 1.836912
                CHANNELS 3 Zrotation Xrotation Yrotation
                JOINT Head
                {
                    OFFSET -0.000000 12.372654 -1.767522
                    CHANNELS 3 Zrotation Xrotation Yrotation
                    End Site
                    {
                        OFFSET -0.000000 22.094025 0.000000
                    }
                }
            }
            JOINT LeftShoulder
            {
                OFFSET 3.465871 17.201674 -0.568930
                CHANNELS 3 Zrotation Xrotation Yrotation
                JOINT LeftArm
                {
                    OFFSET 14.070313 0.000000 0.000000
                    CHANNELS 3 Zrotation Xrotation Yrotation
                    JOINT LeftForeArm
                    {
                        OFFSET 26.549477 0.000000 0.000000
                        CHANNELS 3 Zrotation Xrotation Yrotation
                        JOINT LeftHand
                        {
                            OFFSET 18.880413 0.000000 0.000000
                            CHANNELS 3 Zrotation Xrotation Yrotation
                            End Site
                            {
                                OFFSET 13.256415 0.000000 0.000000
                            }
                        }
                    }
                }
            }
            JOINT RightShoulder
            {
                OFFSET -3.526370 17.201674 -0.568930
                CHANNELS 3 Zrotation Xrotation Yrotation
                JOINT RightArm
                {
                    OFFSET -14.070313 0.000000 0.000000
                    CHANNELS 3 Zrotation Xrotation Yrotation
                    JOINT RightForeArm
                    {
                        OFFSET -26.549477 0.000000 0.000000
                        CHANNELS 3 Zrotation Xrotation Yrotation
                        JOINT RightHand
                        {
                            OFFSET -18.880413 0.000000 0.000000
                            CHANNELS 3 Zrotation Xrotation Yrotation
                            End Site
                            {
                                OFFSET -13.256415 0.000000 0.000000
                            }
                        }
                    }
                }
            }
        }
    }
    JOINT LeftUpLeg
    {
        OFFSET 8.837609 0.000000 0.000000
        CHANNELS 3 Zrotation Xrotation Yrotation
        JOINT LeftLeg
        {
            OFFSET -0.000000 -41.345005 0.000000
            CHANNELS 3 Zrotation Xrotation Yrotation
            JOINT LeftFoot
            {
                OFFSET -0.000000 -35.500874 0.000000
                CHANNELS 3 Zrotation Xrotation Yrotation
                JOINT LeftToeBase
                {
                    OFFSET -0.000000 -5.744446 13.256415
                    CHANNELS 3 Zrotation Xrotation Yrotation
                    End Site
                    {
                        OFFSET -0.000000 0.000000 3.535044
                    }
                }
            }
        }
    }
    JOINT RightUpLeg
    {
        OFFSET -8.837609 0.000000 0.000000
        CHANNELS 3 Zrotation Xrotation Yrotation
        JOINT RightLeg
        {
            OFFSET -0.000000 -41.345005 0.000000
            CHANNELS 3 Zrotation Xrotation Yrotation
            JOINT RightFoot
            {
                OFFSET -0.000000 -35.500874 0.000000
                CHANNELS 3 Zrotation Xrotation Yrotation
                JOINT RightToeBase
                {
                    OFFSET -0.000000 -5.744446 13.256415
                    CHANNELS 3 Zrotation Xrotation Yrotation
                    End Site
                    {
                        OFFSET -0.000000 0.000000 3.535044
                    }
                }
            }
        }
    }
}
MOTION
Frames:    11
Frame Time:    0.010000
3.647710    82.432434    -51.098858    3.124907    2.384366    0.623091    -6.102462    -13.922851    -1.295562    3.110015    4.103583    -0.661254    3.222809    31.003933    -2.528070    -1.204199    -10.536798    -2.439517    18.336983    1.478575    8.101665    -30.085556    10.998827    -9.342244    6.282356    -12.321930    -14.322180    -32.761547    -13.121149    5.470763    -15.893559    2.003253    11.461120    21.543045    7.965553    9.398932    -4.538710    -7.276787    7.899255    1.041636    -6.886894    8.714278    -2.341656    5.658497    0.088014    -2.187962    -8.629937    -5.975305    3.281578    1.067676    -1.879957    -0.695541    -2.041037    0.985893    -7.882025    4.436228    0.843722    7.798832    -7.724528    3.549895    1.147609    -1.877123    -7.643122    -0.607352    -2.030618    1.113793    
3.643823    82.432495    -51.093937    3.127791    2.384986    0.622102    -6.116840    -13.906886    -1.310079    3.138970    4.070616    -0.674921    3.215636    31.017572    -2.523822    -1.261022    -10.543476    -2.448957    18.315945    1.479842    8.135515    -30.095203    10.980206    -9.323380    6.275498    -12.248772    -14.317698    -32.792690    -13.023144    5.374213    -15.918036    1.993447    11.487976    21.555073    7.950459    9.393104    -4.540631    -7.282277    7.886555    1.092096    -6.888705    8.739082    -2.342463    5.660731    0.064357    -2.173825    -8.635910    -5.966526    3.280980    1.085364    -1.853897    -0.545418    -1.952601    0.772682    -7.883552    4.440918    0.843476    7.801897    -7.727293    3.558516    1.110568    -1.953365    -7.749024    -0.663621    -1.925487    1.215538    
3.639031    82.432220    -51.088760    3.129338    2.390955    0.620007    -6.118279    -13.917409    -1.309783    3.136885    4.069012    -0.673885    3.193110    31.010614    -2.506011    -1.241424    -10.531146    -2.429248    18.308815    1.502936    8.157940    -30.088339    10.985053    -9.358327    6.270990    -12.355837    -14.358629    -32.691490    -13.148113    5.461314    -15.913263    1.981521    11.479938    21.569635    7.906048    9.401229    -4.557118    -7.284544    7.865878    1.175273    -6.884206    8.753302    -2.335775    5.658028    0.061229    -2.176607    -8.637044    -6.006429    3.269826    1.080191    -1.818462    -0.698203    -2.048209    0.989712    -7.884222    4.439172    0.837729    7.855172    -7.707860    3.439424    1.108680    -1.793520    -7.595458    -0.660950    -2.011352    1.211814    
3.635111    82.432747    -51.083519    3.131745    2.392878    0.610421    -6.113539    -13.927464    -1.308879    3.128901    4.070636    -0.672748    3.171459    31.014402    -2.499890    -1.223630    -10.535419    -2.421824    18.310385    1.502908    8.164157    -30.096603    11.001169    -9.348641    6.287151    -12.360359    -14.367393    -32.681927    -13.149546    5.460870    -15.922513    1.961585    11.492363    21.597319    7.890498    9.387317    -4.558065    -7.311236    7.868412    1.222939    -6.907041    8.760322    -2.338738    5.660545    0.063980    -2.185102    -8.628588    -5.936254    3.367286    1.091340    -1.917144    -0.742169    -2.119279    1.052497    -7.881776    4.444307    0.851001    7.811676    -7.741700    3.500413    1.100621    -1.930302    -7.633584    -0.623975    -1.947402    1.143204    
3.631639    82.432297    -51.078735    3.135625    2.394404    0.612064    -6.108313    -13.926273    -1.305293    3.103775    4.052677    -0.668510    3.215139    31.028982    -2.512861    -1.256455    -10.543920    -2.436170    18.316433    1.520118    8.164314    -30.085920    10.992292    -9.372931    6.277868    -12.348325    -14.349171    -32.641098    -13.130372    5.435490    -15.911822    1.951475    11.495975    21.634233    7.866430    9.362224    -4.570703    -7.359193    7.872092    1.240133    -6.952527    8.781239    -2.334496    5.660834    0.043580    -2.187562    -8.630585    -5.953357    3.290545    1.072644    -1.848672    -0.705059    -2.054066    0.999466    -7.887522    4.447421    0.851436    7.795300    -7.745091    3.620432    1.110464    -1.950595    -7.790962    -0.647567    -1.933404    1.186239    
3.626659    82.432671    -51.073639    3.139420    2.396889    0.606311    -6.103451    -13.931780    -1.302097    3.088200    4.044561    -0.664779    3.211926    31.025635    -2.504835    -1.249247    -10.535320    -2.426623    18.315475    1.514150    8.166423    -30.076775    11.019535    -9.376094    6.297482    -12.261871    -14.294023    -32.725620    -13.022331    5.342387    -15.917937    1.949889    11.508006    21.687119    7.770920    9.345283    -4.573805    -7.395798    7.867934    1.258506    -6.987446    8.805027    -2.334124    5.654761    0.061250    -2.199300    -8.611741    -5.935344    3.301769    1.063258    -1.872326    -0.700034    -2.054924    0.992348    -7.889032    4.453534    0.861658    7.851910    -7.751458    3.437793    1.089198    -1.780759    -7.601523    -0.655484    -2.017967    1.201883    
3.622060    82.432304    -51.068180    3.142151    2.399917    0.608229    -6.096314    -13.941519    -1.300868    3.063369    4.043651    -0.662902    3.215228    31.010950    -2.508640    -1.234569    -10.515198    -2.426968    18.326115    1.506919    8.161958    -30.074873    11.033100    -9.374426    6.290784    -12.330675    -14.328004    -32.647484    -13.115589    5.445721    -15.897478    1.951171    11.492742    21.733286    7.587853    9.380943    -4.594867    -7.429740    7.826658    1.388930    -7.011520    8.817209    -2.334239    5.652651    0.060045    -2.180217    -8.608741    -6.011852    3.287022    1.063742    -1.800410    -0.693876    -2.052051    0.983601    -7.887775    4.459049    0.866595    7.864359    -7.747391    3.400528    1.103841    -1.790490    -7.564636    -0.649685    -2.025110    1.191346    
3.617229    82.431374    -51.063263    3.145606    2.401088    0.607508    -6.106804    -13.939481    -1.305475    3.074974    4.027814    -0.666442    3.190637    31.024811    -2.509648    -1.221065    -10.534822    -2.428226    18.311558    1.498124    8.166947    -30.065205    11.043958    -9.366374    6.291504    -12.264271    -14.279206    -32.747295    -13.023734    5.329803    -15.901650    1.953849    11.512737    21.767374    7.482254    9.363165    -4.587122    -7.469417    7.810740    1.370241    -7.053403    8.853601    -2.332893    5.651877    0.059539    -2.198967    -8.598763    -5.972809    3.302668    1.053044    -1.837698    -0.697160    -2.049728    0.988242    -7.887720    4.466238    0.853836    7.856705    -7.757125    3.425147    1.093728    -1.775723    -7.563709    -0.640587    -2.044742    1.174924    
3.613169    82.430473    -51.055508    3.147801    2.400396    0.604786    -6.106746    -13.951885    -1.305175    3.071301    4.036873    -0.665475    3.190927    30.999701    -2.509429    -1.223283    -10.512428    -2.429053    18.303127    1.496526    8.164358    -30.064575    11.014653    -9.354762    6.280085    -12.303297    -14.284890    -32.777615    -13.061792    5.317781    -15.886159    1.937688    11.525850    21.793133    7.362499    9.348536    -4.583948    -7.488167    7.779824    1.358589    -7.074250    8.877298    -2.334758    5.657477    0.069741    -2.196673    -8.600593    -5.975411    3.374579    1.070139    -1.868932    -0.761046    -2.109092    1.079198    -7.889862    4.475992    0.868698    7.862251    -7.776206    3.436227    1.098346    -1.764304    -7.582184    -0.649209    -2.033753    1.190590    
3.608567    82.429504    -51.050819    3.154118    2.401149    0.601330    -6.117315    -13.956130    -1.303799    3.078760    4.035410    -0.662775    3.170403    30.988653    -2.509761    -1.207871    -10.512886    -2.429238    18.295094    1.495946    8.166413    -30.077871    10.995497    -9.355353    6.282901    -12.411807    -14.332936    -32.752491    -13.194261    5.417005    -15.881212    1.919611    11.542071    21.833889    7.251503    9.315814    -4.593657    -7.494054    7.752705    1.346076    -7.081290    8.896273    -2.337077    5.661526    0.062663    -2.194546    -8.599536    -5.976255    3.277297    1.055002    -1.818727    -0.707103    -2.056798    1.002381    -7.895088    4.483157    0.880757    7.857812    -7.777668    3.432285    1.105356    -1.775826    -7.593877    -0.667398    -2.034294    1.223953    
3.605214    82.428551    -51.044411    3.157820    2.399562    0.602983    -6.118845    -13.958535    -1.303234    3.076056    4.032836    -0.661807    3.141633    30.982767    -2.509688    -1.174349    -10.517769    -2.425834    18.289871    1.502503    8.175445    -30.081743    10.990830    -9.364058    6.289703    -12.349283    -14.307026    -32.843487    -13.113119    5.333868    -15.871673    1.897829    11.548592    21.861832    7.171452    9.308995    -4.579027    -7.494390    7.669876    1.296808    -7.089053    8.954691    -2.336865    5.668310    0.057410    -2.201441    -8.596910    -5.948893    3.379928    1.067729    -1.894179    -0.775043    -2.121510    1.099131    -7.896791    4.490941    0.864122    7.811474    -7.799635    3.570752    1.128979    -1.908253    -7.682426    -0.604988    -1.967128    1.108666    
